<svg version="1.1" xmlns="http://www.w3.org/2000/svg" viewBox="0 0 844 155" width="844" height="155">
  <!-- svg-source:excalidraw -->
  
  <defs>
    <style>
      @font-face {
        font-family: "Virgil";
        src: url("https://excalidraw.com/Virgil.woff2");
      }
      @font-face {
        font-family: "Cascadia";
        src: url("https://excalidraw.com/Cascadia.woff2");
      }
    </style>
  </defs>
  <rect x="0" y="0" width="844" height="155" fill="#ffffff"></rect><g stroke-linecap="round" transform="translate(10 11) rotate(0 133.5 67)"><path d="M-0.9630564286995872 -0.16362495777785926 C72.03270019246422 1.6977776394761586, 142.0070788043522 1.2130993343042398, 266.55098367563835 0.5858131384739622 M0.1504918681017749 -0.5650892592237464 C78.45975829838973 2.0065922056953704, 158.7517954487819 1.2884088200134314, 267.7443134201835 -0.3113695209814779 M266.5296235475689 -1.5417353007942438 C264.9766560653411 31.848447072319686, 267.4563816050254 67.72604666650295, 268.97142467834055 132.6406481768936 M266.2848524702713 -0.8864075345918536 C266.1335889933817 30.903263403475286, 266.4225276647322 63.94045192729682, 266.72115700971335 133.9700158732012 M267.3296420484829 135.13641671789154 C169.77538177299886 136.33224766745158, 71.30376503560227 135.25016593119142, 1.1153483582438006 135.35307438650358 M266.74440773871385 134.75251225730022 C203.53903865658995 131.58199596430373, 140.45996484510735 131.59734381015713, -0.3049409993426211 133.300745532336 M0.6168591175228357 134.4064619448036 C1.6198952845670282 101.5305003458634, 1.7239761404134333 67.39281046018004, -0.3534300532191992 -0.4220989439636469 M0.3255347264930606 133.88678254652768 C1.1395561210252345 87.15267834849655, -0.39671387156471605 41.889297302626076, -0.9149586008861661 0.03337662387639284" stroke="#000000" stroke-width="1" fill="none"></path></g><g stroke-linecap="round" transform="translate(517 10) rotate(0 158.5 67.5)"><path d="M-1.1476211596825212 -1.1899270349820048 C92.85061971102516 2.77739726048479, 183.80876378597173 0.6360795907640451, 317.46778364113163 -0.8433277350622087 M0.6347664158960387 0.4977641176846221 C68.89545391586066 -2.032693476802348, 138.7791217431736 -0.964148019255971, 316.8890222414129 0.676455241251488 M318.5431497003883 1.3791874442249537 C316.92140108724124 31.832373639103025, 319.52940500159747 61.673356235958636, 317.29324786923826 134.36789599992335 M317.8682929472998 -0.631140892393887 C317.06806666529735 39.37741961283609, 316.09138051546176 76.28801392391324, 317.3184530036524 135.04493930470198 M317.017812727073 134.78890054274302 C246.0906097064434 135.0353470125632, 173.29976085274794 135.09691408552433, -0.28843575592018067 136.25594277695848 M317.5007409562875 134.65308175313393 C239.5716771344556 136.5604097469954, 163.29764893831188 135.9538090474098, 0.06630563029981107 135.12794420217992 M0.13477193377912045 136.576015451923 C-1.0651387945283206 83.17377909878269, -1.8459555283654483 33.16434403043239, 0.1910644080489874 -1.1299590673297644 M0.33716555405408144 134.3184597445652 C-0.935247983923182 95.41034251311794, -1.1063482725527138 57.44374883361161, -0.6884949309751391 -0.3388131009414792" stroke="#000000" stroke-width="1" fill="none"></path></g><g stroke-linecap="round"><g transform="translate(281 50) rotate(0 119.4958728197962 3.5768843825906487)"><path d="M-1.1714494284242392 -0.6353594664484262 C38.92351236976683 0.8322676813850801, 200.09980866350233 6.49732925457259, 240.16319506801665 7.7891282316297294 M0.4144008923135698 1.6454728683270514 C40.40119634574279 2.865472016974042, 199.08858934288844 4.939503901445617, 239.30082701509818 6.080845804456621" stroke="#000000" stroke-width="1" fill="none"></path></g><g transform="translate(281 50) rotate(0 119.4958728197962 3.5768843825906487)"><path d="M209.85232168369288 16.04985523298257 C219.86361649254476 12.15589539254582, 226.2957893767474 9.783429793796621, 240.3037842790596 7.830934486854821 M210.3712587508216 15.661022603324287 C217.33397560576103 13.352303007412205, 223.64071695543996 11.839768975634321, 239.25823141532018 5.948648920785636" stroke="#000000" stroke-width="1" fill="none"></path></g><g transform="translate(281 50) rotate(0 119.4958728197962 3.5768843825906487)"><path d="M210.26109722279492 -4.467281627322081 C219.9897889510389 -2.905238384805778, 226.31317902431013 0.18228959832836278, 240.3037842790596 7.830934486854821 M210.78003428992363 -4.856114256980363 C217.61625803973587 -2.5136221496955127, 223.8303956231626 0.6217837372169273, 239.25823141532018 5.948648920785636" stroke="#000000" stroke-width="1" fill="none"></path></g></g><g transform="translate(76.5 65.5) rotate(0 67 12.5)"><text x="67" y="18" font-family="Virgil, Segoe UI Emoji" font-size="20px" fill="#000000" text-anchor="middle" style="white-space: pre;" direction="ltr">Order Service</text></g><g transform="translate(601 61) rotate(0 78 12.5)"><text x="0" y="18" font-family="Virgil, Segoe UI Emoji" font-size="20px" fill="#000000" text-anchor="start" style="white-space: pre;" direction="ltr">Payment Service</text></g><g transform="translate(305 15) rotate(0.8069294551023581 81.5 12.5)"><text x="0" y="18" font-family="Virgil, Segoe UI Emoji" font-size="20px" fill="#000000" text-anchor="start" style="white-space: pre;" direction="ltr">Validate payment</text></g></svg>